<svg xmlns="http://www.w3.org/2000/svg" width="480" height="120" viewBox="0 0 480 120" fill="none">

  <!-- Accent: sandboxed-container box with chamfered corner -->
  <path d="M 138 29 H 155 L 160 34 V 57 H 138 Z" stroke="#58a6ff" stroke-width="2.5" fill="none" stroke-linejoin="round"/>
  <rect x="143" y="36" width="12" height="2.5" rx="1" fill="#58a6ff"/>
  <rect x="143" y="42" width="8" height="2.5" rx="1" fill="#58a6ff"/>
  <rect x="143" y="48" width="10" height="2.5" rx="1" fill="#58a6ff"/>

  <!-- Letter L (1st) at x=172 -->
  <rect x="172" y="18" width="8" height="50" rx="1" fill="#e6edf3"/>
  <rect x="172" y="60" width="34" height="8" rx="1" fill="#e6edf3"/>

  <!-- Letter U at x=218 -->
  <rect x="218" y="18" width="8" height="50" rx="1" fill="#e6edf3"/>
  <rect x="244" y="18" width="8" height="50" rx="1" fill="#e6edf3"/>
  <rect x="218" y="60" width="34" height="8" rx="1" fill="#e6edf3"/>

  <!-- Letter L (2nd) at x=264 -->
  <rect x="264" y="18" width="8" height="50" rx="1" fill="#e6edf3"/>
  <rect x="264" y="60" width="34" height="8" rx="1" fill="#e6edf3"/>

  <!-- Letter A at x=310 -->
  <rect x="310" y="18" width="8" height="50" rx="1" fill="#e6edf3"/>
  <rect x="336" y="18" width="8" height="50" rx="1" fill="#e6edf3"/>
  <rect x="310" y="18" width="34" height="8" rx="1" fill="#e6edf3"/>
  <rect x="310" y="40" width="34" height="8" rx="1" fill="#e6edf3"/>

  <!-- Horizontal rule under wordmark -->
  <line x1="100" y1="78" x2="380" y2="78" stroke="#30363d" stroke-width="1"/>

  <!-- Subtitle (text element allowed here per spec) -->
  <text x="240" y="98" text-anchor="middle" font-family="'Segoe UI', system-ui, sans-serif" font-size="13" fill="#8b949e">agentic code repair · sandboxed · observable</text>

</svg>
